<?xml version="1.0" encoding="UTF-8" standalone="no"?>
<!-- Generator: Adobe Illustrator 19.0.0, SVG Export Plug-In . SVG Version: 6.00 Build 0)  -->

<svg
   xmlns:dc="http://purl.org/dc/elements/1.1/"
   xmlns:cc="http://creativecommons.org/ns#"
   xmlns:rdf="http://www.w3.org/1999/02/22-rdf-syntax-ns#"
   xmlns:svg="http://www.w3.org/2000/svg"
   xmlns="http://www.w3.org/2000/svg"
   xmlns:sodipodi="http://sodipodi.sourceforge.net/DTD/sodipodi-0.dtd"
   xmlns:inkscape="http://www.inkscape.org/namespaces/inkscape"
   version="1.1"
   id="Layer_1"
   x="0px"
   y="0px"
   viewBox="0 0 512 512"
   style="enable-background:new 0 0 512 512;"
   xml:space="preserve"
   sodipodi:docname="candidate.svg"
   inkscape:version="0.92.4 (5da689c313, 2019-01-14)"><metadata
   id="metadata79"><rdf:RDF><cc:Work
       rdf:about=""><dc:format>image/svg+xml</dc:format><dc:type
         rdf:resource="http://purl.org/dc/dcmitype/StillImage" /></cc:Work></rdf:RDF></metadata><defs
   id="defs77" /><sodipodi:namedview
   pagecolor="#ffffff"
   bordercolor="#666666"
   borderopacity="1"
   objecttolerance="10"
   gridtolerance="10"
   guidetolerance="10"
   inkscape:pageopacity="0"
   inkscape:pageshadow="2"
   inkscape:window-width="1920"
   inkscape:window-height="1011"
   id="namedview75"
   showgrid="false"
   inkscape:zoom="0.4609375"
   inkscape:cx="264.67797"
   inkscape:cy="256"
   inkscape:window-x="0"
   inkscape:window-y="32"
   inkscape:window-maximized="1"
   inkscape:current-layer="Layer_1" />






<g
   id="g910"
   transform="matrix(0.72294563,0,0,0.72294563,70.925919,70.92628)"
   style="stroke-width:1.38322985"><g
     id="g6"
     style="stroke-width:1.38322985">
	<g
   id="g4"
   style="stroke-width:1.38322985">
		<path
   id="path2"
   d="m 451.72,237.26 c -17.422,-8.71 -50.087,-8.811 -51.469,-8.811 -4.142,0 -7.5,3.358 -7.5,7.5 0,4.142 3.358,7.5 7.5,7.5 8.429,10e-4 32.902,1.299 44.761,7.228 1.077,0.539 2.221,0.793 3.348,0.793 2.751,0 5.4,-1.52 6.714,-4.147 1.853,-3.705 0.351,-8.21 -3.354,-10.063 z"
   inkscape:connector-curvature="0"
   style="stroke-width:1.38322985" />
	</g>
</g><g
     id="g12"
     style="stroke-width:1.38322985">
	<g
   id="g10"
   style="stroke-width:1.38322985">
		<path
   id="path8"
   d="m 489.112,344.041 -30.975,-8.85 c -1.337,-0.382 -2.271,-1.62 -2.271,-3.011 v -10.339 c 2.52,-1.746 4.924,-3.7 7.171,-5.881 10.89,-10.568 16.887,-24.743 16.887,-39.915 v -14.267 l 2.995,-5.989 c 3.287,-6.575 5.024,-13.936 5.024,-21.286 v -38.65 c 0,-4.142 -3.358,-7.5 -7.5,-7.5 H 408.27 c -26.244,0 -47.596,21.352 -47.596,47.596 v 0.447 c 0,6.112 1.445,12.233 4.178,17.699 l 3.841,7.682 v 12.25 c 0,19.414 9.567,36.833 24.058,47.315 l 0.002,10.836 c 0,1.671 0,2.363 -6.193,4.133 l -15.114,4.318 -43.721,-15.898 c 0.157,-2.063 -0.539,-4.161 -2.044,-5.742 L 311.71,304.311 v -24.64 c 1.477,-1.217 2.933,-2.467 4.344,-3.789 17.625,-16.52 27.733,-39.844 27.733,-63.991 v -19.678 c 5.322,-11.581 8.019,-23.836 8.019,-36.457 v -80.19 c 0,-4.142 -3.358,-7.5 -7.5,-7.5 H 232.037 c -39.51,0 -71.653,32.144 -71.653,71.653 v 16.039 c 0,12.621 2.697,24.876 8.019,36.457 v 16.931 c 0,28.036 12.466,53.294 32.077,69.946 v 25.22 l -13.971,14.678 c -1.505,1.581 -2.201,3.679 -2.044,5.742 l -46.145,16.779 c -3.344,1.216 -6.451,2.863 -9.272,4.858 l -7.246,-3.623 c 21.57,-9.389 28.403,-22.594 28.731,-23.25 1.056,-2.111 1.056,-4.597 0,-6.708 -5.407,-10.814 -6.062,-30.635 -6.588,-46.561 -0.175,-5.302 -0.341,-10.311 -0.658,-14.771 -2.557,-35.974 -29.905,-63.103 -63.615,-63.103 -33.71,0 -61.059,27.128 -63.615,63.103 -0.317,4.461 -0.483,9.47 -0.658,14.773 -0.526,15.925 -1.182,35.744 -6.588,46.558 -1.056,2.111 -1.056,4.597 0,6.708 0.328,0.656 7.147,13.834 28.76,23.234 L 17.444,352.792 C 6.684,358.176 0,368.991 0,381.02 v 55.409 c 0,4.142 3.358,7.5 7.5,7.5 4.142,0 7.5,-3.358 7.5,-7.5 V 381.02 c 0,-6.312 3.507,-11.987 9.152,-14.81 l 25.063,-12.531 8.718,8.285 c 6.096,5.793 13.916,8.688 21.739,8.688 7.821,0 15.645,-2.897 21.739,-8.688 l 8.717,-8.284 8.172,4.086 c -3.848,6.157 -6.032,13.377 -6.032,20.94 v 57.725 c 0,4.142 3.358,7.5 7.5,7.5 4.142,0 7.5,-3.358 7.5,-7.5 v -57.725 c 0,-10.296 6.501,-19.578 16.178,-23.097 l 48.652,-17.691 20.253,30.381 c 2.589,3.884 6.738,6.375 11.383,6.835 0.518,0.051 1.033,0.076 1.547,0.076 4.098,0 8.023,-1.613 10.957,-4.546 l 12.356,-12.356 v 78.124 c 0,4.142 3.358,7.5 7.5,7.5 4.142,0 7.5,-3.358 7.5,-7.5 v -78.124 l 12.356,12.356 c 2.933,2.934 6.858,4.547 10.957,4.547 0.513,0 1.029,-0.025 1.546,-0.076 4.646,-0.46 8.795,-2.951 11.384,-6.835 l 20.254,-30.38 48.651,17.691 c 9.676,3.519 16.178,12.801 16.178,23.097 v 57.725 c 0,4.142 3.358,7.5 7.5,7.5 4.142,0 7.5,-3.358 7.5,-7.5 v -57.725 c 0,-10.428 -4.143,-20.208 -11.093,-27.441 l 1.853,-0.529 c 1.869,-0.534 4.419,-1.265 6.979,-2.52 l 19.149,19.149 v 69.066 c 0,4.142 3.358,7.5 7.5,7.5 4.142,0 7.5,-3.358 7.5,-7.5 v -69.066 l 19.016,-19.016 c 1.011,0.514 2.073,0.948 3.191,1.267 l 30.976,8.85 c 7.07,2.02 12.009,8.567 12.009,15.921 v 62.044 c 0,4.142 3.358,7.5 7.5,7.5 4.142,0 7.5,-3.358 7.5,-7.5 v -62.044 c 0,-14.018 -9.412,-26.497 -22.888,-30.348 z M 48.115,330.794 c -14.029,-5.048 -21.066,-11.778 -24.07,-15.453 2.048,-5.354 3.376,-11.486 4.275,-17.959 4.136,9.917 11.063,18.383 19.795,24.423 z m 42.965,20.298 c -6.397,6.078 -16.418,6.077 -22.813,-10e-4 l -6.975,-6.628 c 1.177,-2.205 1.824,-4.705 1.824,-7.324 v -7.994 c 5.232,1.635 10.794,2.517 16.558,2.517 5.757,0 11.316,-0.886 16.557,-2.512 l -10e-4,7.988 c 0,2.62 0.646,5.121 1.824,7.327 z m -11.404,-34.43 c -22.396,0 -40.615,-18.22 -40.615,-40.615 0,-4.142 -3.358,-7.5 -7.5,-7.5 -0.42,0 -0.83,0.043 -1.231,0.11 0.022,-0.645 0.043,-1.291 0.065,-1.93 0.167,-5.157 0.328,-10.028 0.625,-14.206 0.958,-13.476 6.343,-25.894 15.163,-34.968 8.899,-9.156 20.793,-14.198 33.491,-14.198 12.698,0 24.591,5.042 33.491,14.198 8.82,9.074 14.205,21.492 15.163,34.968 0.296,4.177 0.458,9.047 0.628,14.203 0.015,0.443 0.03,0.892 0.045,1.338 -8.16,-12.572 -20.762,-21.837 -37.045,-27.069 -15.043,-4.833 -27.981,-4.534 -28.527,-4.52 -1.964,0.055 -3.828,0.877 -5.191,2.291 l -13.532,14.034 c -2.875,2.982 -2.789,7.73 0.193,10.605 2.982,2.875 7.73,2.788 10.605,-0.193 l 11.26,-11.677 c 9.697,0.474 40.894,4.102 53.027,30.819 -3.053,19.688 -19.975,34.31 -40.115,34.31 z m 31.553,14.157 0.001,-8.945 c 8.725,-6.007 15.662,-14.457 19.801,-24.449 0.899,6.458 2.226,12.576 4.27,17.918 -2.987,3.64 -10.057,10.43 -24.072,15.476 z m 72.174,-121.674 v -18.608 c 0,-1.129 -0.255,-2.244 -0.746,-3.261 -4.826,-9.994 -7.273,-20.598 -7.273,-31.518 V 139.72 c 0,-31.239 25.415,-56.653 56.653,-56.653 h 104.769 v 72.692 c 0,10.92 -2.447,21.524 -7.273,31.518 -0.491,1.017 -0.746,2.132 -0.746,3.261 v 21.355 c 0,20.311 -8.165,39.15 -22.991,53.047 -1.851,1.734 -3.772,3.36 -5.758,4.875 -0.044,0.03 -0.086,0.063 -0.129,0.094 -13.889,10.545 -30.901,15.67 -48.667,14.519 -38.041,-2.463 -67.839,-35.531 -67.839,-75.283 z m 42.229,150.911 c -0.052,0.052 -0.173,0.175 -0.418,0.149 -0.244,-0.024 -0.34,-0.167 -0.381,-0.229 l -23.325,-34.988 7.506,-7.887 35.385,24.187 z m 30.463,-28.943 -40.615,-27.762 v -14 c 10.509,5.681 22.276,9.234 34.791,10.044 1.977,0.128 3.942,0.191 5.901,0.191 14.341,0 28.143,-3.428 40.538,-9.935 v 13.7 z m 31.262,28.865 c -0.041,0.062 -0.137,0.205 -0.381,0.229 -0.245,0.031 -0.365,-0.098 -0.418,-0.149 l -18.767,-18.767 35.385,-24.188 7.507,7.887 z m 136.951,-6.328 -17.02,-17.019 c 0.297,-1.349 0.465,-2.826 0.464,-4.455 l -0.001,-3.165 c 4.723,1.55 9.701,2.47 14.852,2.624 0.578,0.018 1.151,0.026 1.727,0.026 5.692,0 11.248,-0.86 16.536,-2.501 v 3.02 c 0,1.496 0.188,2.962 0.542,4.371 z m 28.283,-48.454 c -7.949,7.714 -18.45,11.788 -29.537,11.446 -21.704,-0.651 -39.361,-19.768 -39.361,-42.613 v -14.021 c 0,-1.165 -0.271,-2.313 -0.792,-3.354 l -4.633,-9.266 c -1.697,-3.395 -2.594,-7.195 -2.594,-10.991 v -0.447 c 0,-17.974 14.623,-32.596 32.596,-32.596 h 64.673 v 31.15 c 0,5.034 -1.19,10.075 -3.441,14.578 l -3.786,7.572 c -0.521,1.042 -0.792,2.189 -0.792,3.354 v 16.038 c 0,11.08 -4.38,21.432 -12.333,29.15 z"
   inkscape:connector-curvature="0"
   style="stroke-width:1.38322985" />
	</g>
</g><g
     id="g18"
     style="stroke-width:1.38322985">
	<g
   id="g16"
   style="stroke-width:1.38322985">
		<path
   id="path14"
   d="m 472.423,380.814 c -4.142,0 -7.5,3.358 -7.5,7.5 v 48.115 c 0,4.142 3.358,7.5 7.5,7.5 4.142,0 7.5,-3.358 7.5,-7.5 v -48.115 c 0,-4.141 -3.358,-7.5 -7.5,-7.5 z"
   inkscape:connector-curvature="0"
   style="stroke-width:1.38322985" />
	</g>
</g><g
     id="g24"
     style="stroke-width:1.38322985">
	<g
   id="g22"
   style="stroke-width:1.38322985">
		<path
   id="path20"
   d="m 39.577,390.728 c -4.142,0 -7.5,3.358 -7.5,7.5 v 38.201 c 0,4.142 3.358,7.5 7.5,7.5 4.142,0 7.5,-3.358 7.5,-7.5 v -38.201 c 0,-4.141 -3.358,-7.5 -7.5,-7.5 z"
   inkscape:connector-curvature="0"
   style="stroke-width:1.38322985" />
	</g>
</g><g
     id="g30"
     style="stroke-width:1.38322985">
	<g
   id="g28"
   style="stroke-width:1.38322985">
		<path
   id="path26"
   d="m 317.532,158.475 c -28.366,-28.366 -87.715,-22.943 -111.917,-19.295 -7.623,1.149 -13.155,7.6 -13.155,15.339 v 17.278 c 0,4.142 3.358,7.5 7.5,7.5 4.142,0 7.5,-3.358 7.5,-7.5 v -17.279 c 0,-0.255 0.168,-0.473 0.392,-0.507 9.667,-1.457 28.85,-3.705 48.725,-2.38 23.388,1.557 40.328,7.428 50.349,17.45 2.929,2.929 7.678,2.929 10.606,0 2.929,-2.929 2.929,-7.678 0,-10.606 z"
   inkscape:connector-curvature="0"
   style="stroke-width:1.38322985" />
	</g>
</g><g
     id="g36"
     style="stroke-width:1.38322985">
	<g
   id="g34"
   style="stroke-width:1.38322985">
		<path
   id="path32"
   d="m 167.884,396.853 c -4.142,0 -7.5,3.358 -7.5,7.5 v 32.077 c 0,4.142 3.358,7.5 7.5,7.5 4.142,0 7.5,-3.358 7.5,-7.5 v -32.077 c 0,-4.141 -3.358,-7.5 -7.5,-7.5 z"
   inkscape:connector-curvature="0"
   style="stroke-width:1.38322985" />
	</g>
</g><g
     id="g42"
     style="stroke-width:1.38322985">
	<g
   id="g40"
   style="stroke-width:1.38322985">
		<path
   id="path38"
   d="m 344.306,396.853 c -4.142,0 -7.5,3.358 -7.5,7.5 v 32.077 c 0,4.142 3.358,7.5 7.5,7.5 4.142,0 7.5,-3.358 7.5,-7.5 v -32.077 c 0,-4.141 -3.358,-7.5 -7.5,-7.5 z"
   inkscape:connector-curvature="0"
   style="stroke-width:1.38322985" />
	</g>
</g></g>
<g
   id="g44">
</g>
<g
   id="g46">
</g>
<g
   id="g48">
</g>
<g
   id="g50">
</g>
<g
   id="g52">
</g>
<g
   id="g54">
</g>
<g
   id="g56">
</g>
<g
   id="g58">
</g>
<g
   id="g60">
</g>
<g
   id="g62">
</g>
<g
   id="g64">
</g>
<g
   id="g66">
</g>
<g
   id="g68">
</g>
<g
   id="g70">
</g>
<g
   id="g72">
</g>
</svg>