<?xml version="1.0" encoding="UTF-8" standalone="no"?>
<!-- Generator: Adobe Illustrator 19.0.0, SVG Export Plug-In . SVG Version: 6.00 Build 0)  -->

<svg
   xmlns:dc="http://purl.org/dc/elements/1.1/"
   xmlns:cc="http://creativecommons.org/ns#"
   xmlns:rdf="http://www.w3.org/1999/02/22-rdf-syntax-ns#"
   xmlns:svg="http://www.w3.org/2000/svg"
   xmlns="http://www.w3.org/2000/svg"
   xmlns:sodipodi="http://sodipodi.sourceforge.net/DTD/sodipodi-0.dtd"
   xmlns:inkscape="http://www.inkscape.org/namespaces/inkscape"
   version="1.1"
   id="Capa_1"
   x="0px"
   y="0px"
   viewBox="0 0 512.001 512.001"
   style="enable-background:new 0 0 512.001 512.001;"
   xml:space="preserve"
   sodipodi:docname="corporation.svg"
   inkscape:version="0.92.4 (5da689c313, 2019-01-14)"><metadata
   id="metadata61"><rdf:RDF><cc:Work
       rdf:about=""><dc:format>image/svg+xml</dc:format><dc:type
         rdf:resource="http://purl.org/dc/dcmitype/StillImage" /><dc:title></dc:title></cc:Work></rdf:RDF></metadata><defs
   id="defs59" /><sodipodi:namedview
   pagecolor="#ffffff"
   bordercolor="#666666"
   borderopacity="1"
   objecttolerance="10"
   gridtolerance="10"
   guidetolerance="10"
   inkscape:pageopacity="0"
   inkscape:pageshadow="2"
   inkscape:window-width="1920"
   inkscape:window-height="1011"
   id="namedview57"
   showgrid="false"
   inkscape:zoom="0.92187324"
   inkscape:cx="176.94373"
   inkscape:cy="391.78434"
   inkscape:window-x="0"
   inkscape:window-y="32"
   inkscape:window-maximized="1"
   inkscape:current-layer="Capa_1" />



<g
   id="g885"
   transform="matrix(0.6547211,0,0,0.6547211,88.391559,78.391559)"
   style="stroke-width:1.52736783"><g
     id="g6"
     style="stroke-width:1.52736783">
	<g
   id="g4"
   style="stroke-width:1.52736783">
		<path
   id="path2"
   d="m 345.999,449 c -5.52,0 -10,4.48 -10,10 0,5.52 4.48,10 10,10 5.52,0 10,-4.48 10,-10 0,-5.52 -4.48,-10 -10,-10 z"
   inkscape:connector-curvature="0"
   style="stroke-width:1.52736783" />
	</g>
</g><g
     id="g12"
     style="stroke-width:1.52736783">
	<g
   id="g10"
   style="stroke-width:1.52736783">
		<path
   id="path8"
   d="M 440.428,359.785 C 430.243,344.803 415.954,333.36 399.106,326.691 L 325.749,297.66 c 19.183,-18.662 30.25,-44.387 30.25,-71.66 0,-10.783 -1.686,-21.285 -5.013,-31.341 3.054,-1.758 5.013,-5.034 5.013,-8.659 v -30.639 l 17.453,-34.907 17.019,-8.509 c 3.389,-1.694 5.528,-5.157 5.528,-8.944 V 73 c 0,-4.304 -2.754,-8.125 -6.838,-9.487 L 360.723,54.034 292.035,2.027 C 290.298,0.712 288.178,0 285.999,0 h -60 c -2.18,0 -4.299,0.712 -6.036,2.027 l -68.688,52.006 -28.438,9.479 c -4.084,1.361 -6.838,5.183 -6.838,9.487 v 30 c 0,3.788 2.14,7.25 5.528,8.944 l 17.019,8.509 17.453,34.907 V 186 c 0,3.625 1.957,6.9 5.012,8.659 -3.329,10.053 -5.012,20.553 -5.012,31.341 0,27.272 11.066,52.996 30.242,71.652 l -73.363,29.04 C 96.033,333.359 81.747,344.803 71.564,359.785 61.381,374.765 56,392.258 56,410.37 V 502 c 0,5.523 4.478,10 10,10 h 179.987 c 0.008,0 0.015,10e-4 0.023,10e-4 0.007,0 0.015,-10e-4 0.022,-10e-4 h 19.937 c 0.007,0 0.015,10e-4 0.022,10e-4 0.008,0 0.015,-10e-4 0.023,-10e-4 h 179.987 c 5.522,0 10,-4.477 10,-10 v -91.62 c -0.002,-18.116 -5.386,-35.611 -15.573,-50.595 z m -83.255,-28.18 -61.174,101.345 v -30.28 c 0,-6.458 -2.133,-12.853 -6,-18 l -17.651,-23.536 c 8.21,-5.359 13.651,-14.62 13.651,-25.134 v -14.597 c 7.449,-2.335 14.568,-5.524 21.275,-9.545 z M 154.943,108.528 c -0.968,-1.935 -2.537,-3.505 -4.473,-4.472 L 135.998,96.82 V 80.208 l 23.162,-7.721 c 1.034,-0.345 2.005,-0.856 2.874,-1.514 L 229.357,20 h 53.283 l 67.322,50.973 c 0.869,0.658 1.84,1.169 2.874,1.514 l 23.162,7.721 V 96.82 l -14.472,7.236 c -1.936,0.968 -3.505,2.537 -4.473,4.472 L 339.818,143 H 172.179 Z M 175.999,163 h 160 v 15.758 l -26.151,8.601 c -17.456,5.734 -35.61,8.641 -53.96,8.641 -9.195,0 -18.446,-0.741 -27.496,-2.202 -9.032,-1.458 -18.052,-3.663 -26.802,-6.551 l -19.315,-6.392 c -0.86,-1.003 -1.932,-1.853 -3.195,-2.47 -0.998,-0.487 -2.037,-0.785 -3.081,-0.923 V 163 Z m 0,63 c 0,-8.558 1.329,-16.883 3.941,-24.852 l 15.374,5.089 c 9.76,3.221 19.816,5.679 29.891,7.306 10.1,1.631 20.424,2.458 30.684,2.458 20.473,0 40.728,-3.243 60.205,-9.641 l 15.96,-5.247 c 2.618,7.981 3.946,16.32 3.946,24.888 0,26.541 -13.103,51.256 -35.069,66.196 -0.155,0.097 -0.304,0.203 -0.454,0.308 -8.146,5.469 -17.123,9.345 -26.691,11.515 -11.584,2.631 -23.986,2.631 -35.574,0 -9.622,-2.182 -18.658,-6.094 -26.865,-11.631 C 189.213,277.478 175.999,252.66 175.999,226 Z m 90,99.495 V 336 c 0,5.514 -4.487,10 -10,10 -2.668,0 -5.179,-1.041 -7.068,-2.931 -1.891,-1.89 -2.932,-4.401 -2.932,-7.069 v -10.505 c 3.317,0.33 6.655,0.505 10,0.505 3.345,0 6.683,-0.175 10,-0.505 z m -61.285,-13.647 c 6.716,4.027 13.838,7.219 21.285,9.554 V 336 c 0,8.01 3.121,15.543 8.79,21.212 1.495,1.494 3.122,2.806 4.85,3.936 l -17.635,23.515 c -3.872,5.154 -6.005,11.549 -6.005,18.007 v 30.284 L 154.825,331.597 Z M 75.999,492 v -81.63 c 0,-28.899 17.365,-54.445 44.239,-65.082 l 15.731,-6.227 80.639,133.607 L 228.28,492 Z M 275.998,466.083 260.355,492 h -8.713 l -15.644,-25.91 v -63.42 c 0,-2.153 0.708,-4.281 2,-6 l 18,-24.002 18.005,24.009 c 1.287,1.712 1.995,3.84 1.995,5.993 z m 7.718,25.917 92.314,-152.932 15.719,6.221 c 26.881,10.639 44.25,36.189 44.25,65.091 V 492 Z"
   inkscape:connector-curvature="0"
   style="stroke-width:1.52736783" />
	</g>
</g><g
     id="g18"
     style="stroke-width:1.52736783">
	<g
   id="g16"
   style="stroke-width:1.52736783">
		<path
   id="path14"
   d="m 255.999,43 c -22.056,0 -40,17.944 -40,40 0,22.056 17.944,40 40,40 22.056,0 40,-17.944 40,-40 0,-22.056 -17.944,-40 -40,-40 z m 0,60 c -11.028,0 -20,-8.972 -20,-20 0,-11.028 8.971,-20 20,-20 11.028,0 20,8.972 20,20 0,11.028 -8.972,20 -20,20 z"
   inkscape:connector-curvature="0"
   style="stroke-width:1.52736783" />
	</g>
</g><g
     id="g24"
     style="stroke-width:1.52736783">
	<g
   id="g22"
   style="stroke-width:1.52736783">
		<path
   id="path20"
   d="m 405.999,449 h -20 c -5.522,0 -10,4.477 -10,10 0,5.523 4.478,10 10,10 h 20 c 5.522,0 10,-4.477 10,-10 0,-5.523 -4.478,-10 -10,-10 z"
   inkscape:connector-curvature="0"
   style="stroke-width:1.52736783" />
	</g>
</g></g>
<g
   id="g26">
</g>
<g
   id="g28">
</g>
<g
   id="g30">
</g>
<g
   id="g32">
</g>
<g
   id="g34">
</g>
<g
   id="g36">
</g>
<g
   id="g38">
</g>
<g
   id="g40">
</g>
<g
   id="g42">
</g>
<g
   id="g44">
</g>
<g
   id="g46">
</g>
<g
   id="g48">
</g>
<g
   id="g50">
</g>
<g
   id="g52">
</g>
<g
   id="g54">
</g>
</svg>