<?xml version="1.0" encoding="UTF-8" standalone="no"?>
<svg
   xmlns:dc="http://purl.org/dc/elements/1.1/"
   xmlns:cc="http://creativecommons.org/ns#"
   xmlns:rdf="http://www.w3.org/1999/02/22-rdf-syntax-ns#"
   xmlns:svg="http://www.w3.org/2000/svg"
   xmlns="http://www.w3.org/2000/svg"
   xmlns:sodipodi="http://sodipodi.sourceforge.net/DTD/sodipodi-0.dtd"
   xmlns:inkscape="http://www.inkscape.org/namespaces/inkscape"
   height="512"
   viewBox="0 0 383.99999 383.99999"
   width="512"
   version="1.1"
   id="svg16"
   sodipodi:docname="dependency.svg"
   inkscape:version="0.92.4 (5da689c313, 2019-01-14)">
  <metadata
     id="metadata22">
    <rdf:RDF>
      <cc:Work
         rdf:about="">
        <dc:format>image/svg+xml</dc:format>
        <dc:type
           rdf:resource="http://purl.org/dc/dcmitype/StillImage" />
        <dc:title></dc:title>
      </cc:Work>
    </rdf:RDF>
  </metadata>
  <defs
     id="defs20" />
  <sodipodi:namedview
     pagecolor="#ffffff"
     bordercolor="#666666"
     borderopacity="1"
     objecttolerance="10"
     gridtolerance="10"
     guidetolerance="10"
     inkscape:pageopacity="0"
     inkscape:pageshadow="2"
     inkscape:window-width="1920"
     inkscape:window-height="1011"
     id="namedview18"
     showgrid="false"
     units="px"
     inkscape:zoom="0.9777961"
     inkscape:cx="254.65756"
     inkscape:cy="211.3403"
     inkscape:window-x="0"
     inkscape:window-y="32"
     inkscape:window-maximized="1"
     inkscape:current-layer="svg16" />
  <g
     id="g836"
     transform="matrix(0.43220337,0,0,0.43220337,81.355932,81.355932)"
     style="stroke-width:2.31372547">
    <path
       id="path2"
       d="m 504.5,158 h -16 v -35.5 c 0,-4.14062 -3.35547,-7.5 -7.5,-7.5 h -17.5 c -9.67578,0 -9.67578,15 0,15 h 10 v 27 H 390.03516 V 130 H 421 c 9.67578,0 9.67578,-15 0,-15 H 390.03516 V 57 h 14.64062 c 4.14453,0 7.5,-3.359375 7.5,-7.5 v -42 c 0,-4.140625 -3.35547,-7.5 -7.5,-7.5 H 107.32422 c -4.14453,0 -7.500001,3.359375 -7.500001,7.5 v 42 c 0,4.140625 3.355471,7.5 7.500001,7.5 h 14.64062 v 58 H 31 c -4.140625,0 -7.5,3.35938 -7.5,7.5 V 158 H 7.5 C 3.359375,158 0,161.35937 0,165.5 V 215 c 0,9.67578 15,9.67578 15,0 V 173 H 121.96484 V 497 H 15 V 257 c 0,-9.67578 -15,-9.67578 -15,0 v 247.5 c 0,4.14062 3.359375,7.5 7.5,7.5 h 497 c 4.14453,0 7.5,-3.35938 7.5,-7.5 v -339 c 0,-4.14063 -3.35547,-7.5 -7.5,-7.5 z M 114.82422,15 H 397.17578 V 42 H 114.82422 Z M 38.5,130 h 83.46484 v 27 H 38.5 Z M 172.54297,497 V 481.6875 H 339.45703 V 497 Z M 316.57422,466.6875 H 263.5 V 353.53906 h 53.07422 z m -68.07422,0 H 195.42578 V 353.53906 H 248.5 Z M 497,497 H 390.03516 v -57 c 0,-9.67578 -15,-9.67578 -15,0 v 57 h -20.57813 v -22.8125 c 0,-4.14453 -3.35547,-7.5 -7.5,-7.5 H 331.57422 V 346.03906 c 0,-4.14062 -3.35547,-7.5 -7.5,-7.5 H 187.92578 c -4.14453,0 -7.5,3.35938 -7.5,7.5 V 466.6875 h -15.38281 c -4.14063,0 -7.5,3.35547 -7.5,7.5 V 497 H 136.96484 V 57 h 238.07032 v 340 c 0,9.67578 15,9.67578 15,0 V 173 H 497 Z m 0,0"
       inkscape:connector-curvature="0"
       style="stroke-width:2.31372547" />
    <path
       id="path4"
       d="m 424.5,438.26953 h 37.68359 c 4.14063,0 7.5,-3.35937 7.5,-7.5 v -84 c 0,-4.14062 -3.35937,-7.5 -7.5,-7.5 H 424.5 c -4.14453,0 -7.5,3.35938 -7.5,7.5 v 84 c 0,4.14063 3.35547,7.5 7.5,7.5 z m 7.5,-84 h 22.68359 v 69 H 432 Z m 0,0"
       inkscape:connector-curvature="0"
       style="stroke-width:2.31372547" />
    <path
       id="path6"
       d="m 42,430.76953 c 0,4.14063 3.359375,7.5 7.5,7.5 h 37.683594 c 4.140625,0 7.5,-3.35937 7.5,-7.5 v -84 c 0,-4.14062 -3.359375,-7.5 -7.5,-7.5 H 49.5 c -4.140625,0 -7.5,3.35938 -7.5,7.5 z m 15,-76.5 h 22.683594 v 69 H 57 Z m 0,0"
       inkscape:connector-curvature="0"
       style="stroke-width:2.31372547" />
    <path
       id="path8"
       d="m 424.5,311.26953 h 37.68359 c 4.14063,0 7.5,-3.35937 7.5,-7.5 v -84 c 0,-4.14062 -3.35937,-7.5 -7.5,-7.5 H 424.5 c -4.14453,0 -7.5,3.35938 -7.5,7.5 v 84 c 0,4.14063 3.35547,7.5 7.5,7.5 z m 7.5,-84 h 22.68359 v 69 H 432 Z m 0,0"
       inkscape:connector-curvature="0"
       style="stroke-width:2.31372547" />
    <path
       id="path10"
       d="m 49.5,311.26953 h 37.683594 c 4.140625,0 7.5,-3.35937 7.5,-7.5 v -84 c 0,-4.14062 -3.359375,-7.5 -7.5,-7.5 H 49.5 c -4.140625,0 -7.5,3.35938 -7.5,7.5 v 84 c 0,4.14063 3.359375,7.5 7.5,7.5 z m 7.5,-84 h 22.683594 v 69 H 57 Z m 0,0"
       inkscape:connector-curvature="0"
       style="stroke-width:2.31372547" />
    <path
       id="path12"
       d="m 252.27344,227.46094 c 0.75,0.24218 1.52734,0.36718 2.3125,0.36718 h 0.82812 c 0.78516,0 1.5625,-0.125 2.3125,-0.36718 0.66797,-0.21485 16.6211,-5.51172 32.39844,-21.84766 14.33594,-14.83984 31.42187,-42.09766 31.42187,-87.6875 0,-3.18359 -2.00781,-6.01953 -5.01171,-7.07422 L 257.48828,90.070312 c -1.60937,-0.566406 -3.36719,-0.566406 -4.97656,0 l -59.04688,20.781248 c -3.0039,1.05469 -5.01172,3.89063 -5.01172,7.07422 0,45.58984 17.08594,72.85156 31.42188,87.6875 15.77734,16.33594 31.73047,21.63281 32.39844,21.84766 z M 255,105.09766 l 51.46484,18.10937 c -0.9375,29.78125 -9.86718,53.78516 -26.58593,71.41797 -10.28125,10.84375 -20.71875,16.03516 -24.89063,17.82031 -9.28906,-3.95703 -49.36719,-24.73437 -51.45312,-89.23828 z m 0,0"
       inkscape:connector-curvature="0"
       style="stroke-width:2.31372547" />
    <path
       id="path14"
       d="M 324.39062,261.26953 H 188.40234 c -4.14062,0 -7.5,3.35938 -7.5,7.5 v 35 c 0,4.14063 3.35938,7.5 7.5,7.5 h 135.98438 c 4.14453,0 7.5,-3.35937 7.5,-7.5 v -35 c 0.004,-4.14062 -3.35547,-7.5 -7.4961,-7.5 z m -7.5,35 H 195.90234 v -20 h 120.98438 v 20 z m 0,0"
       inkscape:connector-curvature="0"
       style="stroke-width:2.31372547" />
  </g>
</svg>
