<svg id="Capa_1" enable-background="new 0 0 512 512" height="512" viewBox="0 0 512 512" width="512" xmlns="http://www.w3.org/2000/svg"><g><path d="m447 16h-382c-35.841 0-65 29.159-65 65v350c0 35.841 29.159 65 65 65h382c35.841 0 65-29.159 65-65v-350c0-35.841-29.159-65-65-65zm35 415c0 19.299-15.701 35-35 35h-382c-19.299 0-35-15.701-35-35v-350c0-19.299 15.701-35 35-35h382c19.299 0 35 15.701 35 35z"/><path d="m436 74h-360c-8.284 0-15 6.716-15 15v212c0 8.284 6.716 15 15 15h360c8.284 0 15-6.716 15-15v-212c0-8.284-6.716-15-15-15zm-15 30v77h-45c-6.457 0-12.188 4.131-14.23 10.256l-6.485 19.455-57.761-69.313c-7.507-9.007-22.039-6.285-25.754 4.859l-11.582 34.743h-19.188c-6.457 0-12.188 4.131-14.23 10.256l-6.485 19.455-57.761-69.313c-7.507-9.007-22.039-6.285-25.754 4.859l-11.582 34.743h-34.188v-77zm-330 182v-75h45c6.457 0 12.188-4.131 14.23-10.256l6.485-19.455 57.762 69.313c7.519 9.024 22.047 6.263 25.753-4.859l11.582-34.743h19.188c6.457 0 12.188-4.131 14.23-10.256l6.485-19.455 57.762 69.313c7.507 9.009 22.04 6.283 25.753-4.859l11.582-34.743h34.188v75z"/><path d="m256 346c-24.813 0-45 20.187-45 45s20.187 45 45 45 45-20.187 45-45-20.187-45-45-45zm0 60c-8.271 0-15-6.729-15-15s6.729-15 15-15 15 6.729 15 15-6.729 15-15 15z"/><circle cx="166" cy="391" r="15"/><circle cx="346" cy="391" r="15"/></g></svg>