<?xml version="1.0" encoding="iso-8859-1"?>
<!-- Generator: Adobe Illustrator 19.0.0, SVG Export Plug-In . SVG Version: 6.00 Build 0)  -->
<svg version="1.1" id="Capa_1" xmlns="http://www.w3.org/2000/svg" xmlns:xlink="http://www.w3.org/1999/xlink" x="0px" y="0px"
	 viewBox="0 0 512.001 512.001" style="enable-background:new 0 0 512.001 512.001;" xml:space="preserve">
<g>
	<g>
		<path d="M437.001,0H114.743C87.315,0,65.001,22.314,65.001,49.742v369.483v0.699c0,0.201,0.018,0.398,0.03,0.596
			c0.014,0.529,0.032,1.057,0.062,1.584c0.006,0.102,0.015,0.203,0.021,0.305c0.046,0.724,0.107,1.445,0.184,2.163
			c0.012,0.109,0.025,0.217,0.038,0.325c0.083,0.723,0.18,1.443,0.294,2.16c0.012,0.075,0.024,0.149,0.037,0.224
			c0.126,0.772,0.27,1.54,0.432,2.304c0,0,0,0.001,0,0.002c1.83,8.616,5.917,16.637,11.971,23.241
			c0.292,0.318,0.603,0.605,0.924,0.877c9.064,9.393,21.755,15.262,35.747,15.262h17.219V502c0,3.432,1.76,6.625,4.663,8.457
			c2.902,1.832,6.542,2.048,9.64,0.571l37.665-17.95l37.665,17.95c1.365,0.65,2.835,0.973,4.302,0.973
			c1.861,0,3.715-0.519,5.338-1.543c2.902-1.832,4.663-5.024,4.663-8.457v-33.034h201.105c5.523,0,10-4.477,10-10v-78.784V10
			C447.001,4.477,442.524,0,437.001,0z M131.962,448.966h-17.219c-12.645,0-23.523-8.004-27.798-19.21h45.017V448.966z
			 M215.896,458.967v27.19l-27.665-13.184c-2.722-1.297-5.883-1.297-8.604,0l-27.665,13.184v-27.19v-29.21h63.934V458.967z
			 M427.001,448.966H235.896v-19.21h114.962c5.523,0,10-4.477,10-10s-4.477-10-10-10H225.896h-83.934H86.813
			c4.177-11.396,15.149-19.574,27.93-19.574h312.258V448.966z M427.001,370.182H141.229V87.87c0-5.523-4.477-10-10-10
			c-5.523,0-10,4.477-10,10v282.313h-6.486c-0.783,0-1.56,0.023-2.334,0.059c-0.246,0.012-0.49,0.031-0.735,0.046
			c-0.532,0.033-1.062,0.072-1.59,0.121c-0.278,0.026-0.554,0.056-0.83,0.087c-0.507,0.056-1.011,0.121-1.513,0.193
			c-0.263,0.038-0.526,0.073-0.788,0.115c-0.571,0.091-1.137,0.194-1.701,0.304c-0.18,0.035-0.362,0.065-0.541,0.102
			c-0.737,0.152-1.468,0.321-2.193,0.506c-0.178,0.045-0.353,0.098-0.531,0.146c-0.549,0.147-1.095,0.3-1.637,0.465
			c-0.251,0.076-0.499,0.158-0.747,0.238c-0.471,0.152-0.94,0.31-1.405,0.475c-0.255,0.091-0.509,0.182-0.761,0.277
			c-0.478,0.179-0.951,0.367-1.422,0.56c-0.219,0.09-0.44,0.176-0.658,0.269c-0.668,0.285-1.329,0.581-1.982,0.894
			c-0.018,0.009-0.036,0.017-0.054,0.025c-0.656,0.316-1.303,0.649-1.943,0.992c-0.208,0.112-0.412,0.229-0.619,0.344
			c-0.44,0.244-0.878,0.493-1.31,0.75c-0.231,0.138-0.461,0.278-0.69,0.42c-0.412,0.254-0.819,0.514-1.222,0.78
			c-0.217,0.143-0.435,0.284-0.649,0.43c-0.453,0.308-0.899,0.626-1.341,0.949c-0.15,0.109-0.303,0.215-0.452,0.326
			c-0.031,0.023-0.063,0.045-0.094,0.068V49.742c0-16.4,13.342-29.742,29.742-29.742h312.258V370.182z"/>
	</g>
</g>
<g>
	<g>
		<path d="M402.241,417.8c-0.13-0.64-0.32-1.27-0.57-1.87c-0.25-0.6-0.56-1.18-0.92-1.72c-0.36-0.55-0.78-1.06-1.24-1.52
			c-0.46-0.47-0.97-0.88-1.52-1.25c-0.54-0.36-1.12-0.67-1.73-0.92c-0.6-0.25-1.23-0.44-1.87-0.57c-1.29-0.26-2.62-0.26-3.91,0
			c-0.63,0.13-1.26,0.32-1.87,0.57c-0.6,0.25-1.18,0.56-1.72,0.92c-0.55,0.37-1.06,0.78-1.52,1.25c-0.46,0.46-0.88,0.97-1.25,1.52
			c-0.36,0.54-0.67,1.12-0.91,1.72c-0.25,0.6-0.45,1.23-0.58,1.87c-0.12,0.65-0.19,1.3-0.19,1.96c0,0.65,0.07,1.31,0.19,1.95
			c0.13,0.64,0.33,1.27,0.58,1.87c0.25,0.6,0.55,1.18,0.91,1.73c0.37,0.54,0.79,1.06,1.25,1.52c0.46,0.46,0.97,0.88,1.52,1.24
			c0.54,0.36,1.12,0.67,1.72,0.92c0.61,0.25,1.24,0.44,1.87,0.57c0.65,0.13,1.31,0.2,1.96,0.2c0.65,0,1.31-0.07,1.95-0.2
			s1.27-0.32,1.87-0.57c0.61-0.25,1.19-0.56,1.73-0.92c0.55-0.36,1.06-0.78,1.52-1.24c0.46-0.46,0.88-0.98,1.24-1.52
			c0.36-0.55,0.67-1.13,0.92-1.73c0.25-0.6,0.44-1.23,0.57-1.87s0.2-1.3,0.2-1.95C402.441,419.1,402.371,418.45,402.241,417.8z"/>
	</g>
</g>
<g>
	<g>
		<path d="M141.031,44.33c-0.13-0.63-0.32-1.26-0.57-1.87c-0.25-0.6-0.56-1.18-0.92-1.72c-0.36-0.55-0.78-1.06-1.24-1.52
			c-0.46-0.46-0.97-0.88-1.52-1.25c-0.54-0.36-1.12-0.67-1.73-0.92c-0.6-0.25-1.23-0.44-1.87-0.57c-1.29-0.26-2.62-0.26-3.91,0
			c-0.63,0.13-1.26,0.32-1.87,0.57c-0.6,0.25-1.18,0.56-1.72,0.92c-0.55,0.37-1.06,0.79-1.52,1.25c-0.46,0.46-0.88,0.97-1.25,1.52
			c-0.36,0.54-0.67,1.12-0.92,1.72c-0.25,0.61-0.44,1.24-0.57,1.87c-0.13,0.65-0.19,1.31-0.19,1.96c0,0.65,0.06,1.31,0.19,1.95
			s0.32,1.27,0.57,1.87c0.25,0.61,0.56,1.19,0.92,1.73c0.37,0.55,0.79,1.06,1.25,1.52c0.46,0.46,0.97,0.88,1.52,1.24
			c0.54,0.36,1.12,0.67,1.72,0.92c0.61,0.25,1.24,0.44,1.87,0.57c0.65,0.13,1.31,0.2,1.96,0.2c0.65,0,1.31-0.07,1.95-0.2
			c0.64-0.13,1.27-0.32,1.87-0.57c0.61-0.25,1.19-0.56,1.73-0.92c0.55-0.36,1.06-0.78,1.52-1.24c0.46-0.46,0.88-0.97,1.24-1.52
			c0.36-0.54,0.67-1.12,0.92-1.73c0.25-0.6,0.44-1.23,0.57-1.87s0.2-1.3,0.2-1.95C141.23,45.64,141.16,44.98,141.031,44.33z"/>
	</g>
</g>
<g>
	<g>
		<path d="M335.1,117.923c-20.881,0-37.869,16.988-37.869,37.869c0,5.522,4.477,10,10,10s10-4.477,10-10
			c0-9.853,8.016-17.869,17.869-17.869c5.523,0,10-4.477,10-10C345.1,122.4,340.624,117.923,335.1,117.923z"/>
	</g>
</g>
<g>
	<g>
		<path d="M339.826,196.124c-20.881,0-37.869,16.988-37.869,37.869c0,5.523,4.477,10,10,10s10-4.477,10-10
			c0-9.853,8.016-17.869,17.869-17.869c5.523,0,10-4.477,10-10C349.826,200.601,345.349,196.124,339.826,196.124z"/>
	</g>
</g>
<g>
	<g>
		<path d="M413.798,192.96c0-16.229-8.121-31.049-21.368-40.105c4.448-11.175,4.456-23.839-0.315-35.009
			c-0.045-0.106-0.093-0.211-0.142-0.316c-8.229-17.556-24.299-27.968-42.993-28.343c-8.256-15.057-23.339-24.162-41.611-24.748
			c-0.107-0.004-0.214-0.005-0.321-0.005c-7.57,0-14.914,1.731-21.566,5.046c-11.24-5.82-23.972-6.625-37.951-2.345
			c-0.164,0.05-0.326,0.104-0.486,0.163c-10.085,3.663-18.539,10.564-24.018,19.421c-0.093-0.001-0.185-0.001-0.277-0.001
			c-16.562,0-32.046,7.929-41.416,21.203c-9.632,13.618-11.348,31.158-5.143,46.253c-12.147,9.125-19.367,23.215-19.367,38.709
			c-0.001,16.227,8.12,31.047,21.368,40.104c-4.448,11.175-4.456,23.84,0.315,35.009c0.045,0.106,0.093,0.211,0.142,0.316
			c8.229,17.556,24.299,27.969,42.993,28.343c8.255,15.056,23.339,24.161,41.61,24.747c0.107,0.004,0.214,0.005,0.321,0.005
			c7.566,0,14.906-1.729,21.555-5.041c6.489,3.362,13.475,5.054,20.913,5.054c5.448,0,11.138-0.904,17.049-2.713
			c0.163-0.05,0.326-0.105,0.487-0.163c10.085-3.664,18.539-10.564,24.018-19.421c16.67,0.05,32.271-7.854,41.693-21.202
			c9.632-13.619,11.348-31.158,5.144-46.253C406.578,222.543,413.798,208.454,413.798,192.96z M275.311,298.89
			c-3.603,1.634-7.531,2.493-11.58,2.515c-12.775-0.463-22.169-7.046-26.461-18.551c-1.472-3.946-5.234-6.505-9.364-6.505
			c-0.393,0-0.789,0.023-1.187,0.07c-13.295,1.584-24.177-4.408-29.887-16.439c-2.277-5.431-2.531-11.491-0.912-17.104
			c2.728,0.867,5.555,1.309,8.377,1.309c6.884,0,13.721-2.586,18.908-7.773c3.905-3.905,3.905-10.237,0-14.143
			c-3.905-3.905-10.237-3.905-14.143,0c-2.674,2.677-7.378,2.492-10.27-0.401c-0.085-0.085-0.177-0.158-0.265-0.239
			c-0.107-0.099-0.213-0.198-0.324-0.293c-0.179-0.153-0.364-0.295-0.55-0.434c-0.096-0.07-0.189-0.143-0.287-0.211
			c-0.242-0.166-0.491-0.318-0.743-0.46c-0.055-0.031-0.107-0.066-0.162-0.096c-0.333-0.179-0.672-0.341-1.019-0.48
			c-11.312-4.561-18.621-15.07-18.621-26.778c0.002-7.454,2.897-14.365,7.912-19.593c4.919,6.743,12.837,11.082,21.779,11.082
			c5.523,0,10-4.477,10-10c0-5.523-4.477-10-10-10c-3.783,0-6.867-3.059-7.021-6.964c-0.002-0.047-0.01-0.092-0.013-0.139
			c-0.008-0.153-0.026-0.305-0.041-0.457c-0.02-0.203-0.041-0.405-0.073-0.605c-0.022-0.135-0.05-0.269-0.078-0.403
			c-0.044-0.216-0.091-0.429-0.149-0.639c-0.033-0.12-0.07-0.238-0.107-0.357c-0.069-0.22-0.144-0.436-0.227-0.649
			c-0.044-0.111-0.089-0.221-0.136-0.331c-0.093-0.214-0.194-0.424-0.301-0.63c-0.055-0.105-0.108-0.21-0.167-0.313
			c-0.118-0.209-0.246-0.41-0.378-0.609c-0.045-0.068-0.082-0.141-0.13-0.209c-6.866-9.813-6.877-22.911-0.023-32.602
			c5.241-7.426,13.726-12.061,22.996-12.67c3.925,10.19,13.899,17.45,25.56,17.45c5.523,0,10-4.477,10-10c0-5.523-4.477-10-10-10
			c-3.439,0-6.326-2.284-7.122-5.354c3.008-5.837,8.088-10.302,14.538-12.706c8.371-2.517,15.382-2.353,21.671,0.565V298.89z
			 M385.888,212.559c-4.919-6.743-12.837-11.082-21.779-11.082c-5.523,0-10,4.477-10,10s4.477,10,10,10
			c3.783,0,6.867,3.059,7.021,6.964c0.002,0.048,0.01,0.093,0.013,0.141c0.008,0.144,0.024,0.287,0.038,0.43
			c0.02,0.209,0.042,0.417,0.075,0.623c0.021,0.128,0.047,0.255,0.072,0.382c0.044,0.222,0.094,0.441,0.153,0.657
			c0.031,0.112,0.064,0.223,0.098,0.335c0.071,0.229,0.15,0.453,0.236,0.674c0.039,0.1,0.077,0.199,0.119,0.297
			c0.1,0.233,0.21,0.459,0.326,0.682c0.044,0.084,0.085,0.17,0.131,0.253c0.143,0.257,0.299,0.505,0.464,0.747
			c0.026,0.038,0.047,0.08,0.073,0.118c6.866,9.812,6.878,22.91,0.023,32.601c-5.241,7.426-13.726,12.061-22.996,12.67
			c-3.925-10.19-13.899-17.45-25.56-17.45c-5.523,0-10,4.477-10,10s4.477,10,10,10c3.439,0,6.325,2.284,7.122,5.354
			c-3.007,5.837-8.088,10.302-14.538,12.707c-8.373,2.517-15.382,2.353-21.671-0.566V86.95c3.603-1.634,7.532-2.494,11.581-2.515
			c12.776,0.463,22.17,7.046,26.462,18.55c1.612,4.32,5.965,6.979,10.55,6.435c13.301-1.583,24.178,4.409,29.888,16.439
			c2.275,5.431,2.529,11.49,0.912,17.102c-9.384-2.984-19.972-0.848-27.286,6.466c-3.905,3.905-3.905,10.237,0,14.143
			c3.905,3.905,10.237,3.905,14.143,0c1.712-1.712,3.811-1.918,4.909-1.901c1.99,0.045,3.944,0.884,5.361,2.302
			c0.085,0.085,0.177,0.158,0.264,0.239c0.107,0.099,0.213,0.198,0.324,0.293c0.179,0.153,0.363,0.295,0.549,0.433
			c0.096,0.071,0.19,0.144,0.288,0.212c0.24,0.165,0.487,0.315,0.738,0.456c0.057,0.032,0.111,0.068,0.168,0.1
			c0.332,0.179,0.671,0.34,1.016,0.478c11.313,4.561,18.622,15.071,18.622,26.78C393.797,200.421,390.902,207.332,385.888,212.559z"
			/>
	</g>
</g>
<g>
	<g>
		<path d="M263.39,220.051c-5.523,0-10,4.477-10,10c0,9.853-8.016,17.869-17.869,17.869c-5.523,0-10,4.477-10,10s4.477,10,10,10
			c20.881,0,37.869-16.988,37.869-37.869C273.39,224.528,268.913,220.051,263.39,220.051z"/>
	</g>
</g>
<g>
	<g>
		<path d="M258.665,141.849c-5.523,0-10,4.477-10,10c0,9.853-8.016,17.869-17.869,17.869c-5.523,0-10,4.477-10,10
			c0,5.523,4.477,10,10,10c20.881,0,37.869-16.988,37.869-37.869C268.665,146.326,264.188,141.849,258.665,141.849z"/>
	</g>
</g>
<g>
</g>
<g>
</g>
<g>
</g>
<g>
</g>
<g>
</g>
<g>
</g>
<g>
</g>
<g>
</g>
<g>
</g>
<g>
</g>
<g>
</g>
<g>
</g>
<g>
</g>
<g>
</g>
<g>
</g>
</svg>
