<?xml version="1.0" encoding="UTF-8" standalone="no"?>
<svg
   xmlns:dc="http://purl.org/dc/elements/1.1/"
   xmlns:cc="http://creativecommons.org/ns#"
   xmlns:rdf="http://www.w3.org/1999/02/22-rdf-syntax-ns#"
   xmlns:svg="http://www.w3.org/2000/svg"
   xmlns="http://www.w3.org/2000/svg"
   xmlns:sodipodi="http://sodipodi.sourceforge.net/DTD/sodipodi-0.dtd"
   xmlns:inkscape="http://www.inkscape.org/namespaces/inkscape"
   width="512"
   height="512"
   viewBox="0 0 128 128"
   version="1.1"
   id="svg18"
   sodipodi:docname="secondment.svg"
   inkscape:version="0.92.4 (5da689c313, 2019-01-14)">
  <metadata
     id="metadata24">
    <rdf:RDF>
      <cc:Work
         rdf:about="">
        <dc:format>image/svg+xml</dc:format>
        <dc:type
           rdf:resource="http://purl.org/dc/dcmitype/StillImage" />
      </cc:Work>
    </rdf:RDF>
  </metadata>
  <defs
     id="defs22" />
  <sodipodi:namedview
     pagecolor="#ffffff"
     bordercolor="#666666"
     borderopacity="1"
     objecttolerance="10"
     gridtolerance="10"
     guidetolerance="10"
     inkscape:pageopacity="0"
     inkscape:pageshadow="2"
     inkscape:window-width="1920"
     inkscape:window-height="1011"
     id="namedview20"
     showgrid="false"
     inkscape:zoom="0.921875"
     inkscape:cx="275.02519"
     inkscape:cy="176.52003"
     inkscape:window-x="0"
     inkscape:window-y="32"
     inkscape:window-maximized="1"
     inkscape:current-layer="svg18" />
  <g
     id="g848"
     transform="matrix(0.63640563,0,0,0.63640563,23.270358,23.270994)"
     style="stroke-width:1.57132494">
    <g
       id="g16"
       style="stroke-width:1.57132494">
      <path
         id="path2"
         d="m 111.187,115.25 h -7.75 V 19.366 a 5.756,5.756 0 0 0 -5.75,-5.75 H 65.75 V 1.747 A 1.75,1.75 0 0 0 64,0 H 34.75 A 1.75,1.75 0 0 0 33,1.747 v 11.869 h -2.688 a 5.757,5.757 0 0 0 -5.75,5.75 v 95.884 h -7.75 a 1.751,1.751 0 0 0 -1.75,1.75 v 9.247 a 1.751,1.751 0 0 0 1.75,1.75 h 94.375 a 1.75,1.75 0 0 0 1.75,-1.75 V 117 a 1.75,1.75 0 0 0 -1.75,-1.75 z M 36.5,3.5 H 62.25 V 13.616 H 36.5 Z m -8.438,15.866 a 2.253,2.253 0 0 1 2.25,-2.25 h 67.375 a 2.252,2.252 0 0 1 2.25,2.25 V 115.25 H 77 v -19 h 4.372 a 1.75,1.75 0 0 0 1.75,-1.75 v -7.87 a 1.75,1.75 0 0 0 -1.75,-1.75 H 46.625 a 1.75,1.75 0 0 0 -1.75,1.75 v 7.87 a 1.75,1.75 0 0 0 1.75,1.75 H 51 v 19 H 28.062 Z m 20.313,73.379 v -4.37 h 31.25 v 4.37 z m 6.122,3.5 H 73.5 v 19 h -19 z m 54.94,28.252 H 18.562 v -5.747 h 90.875 z"
         inkscape:connector-curvature="0"
         style="stroke-width:1.57132494" />
      <path
         id="path4"
         d="m 36.312,36.756 h 20.313 a 1.75,1.75 0 0 0 1.75,-1.75 v -9.64 a 1.749,1.749 0 0 0 -1.75,-1.75 H 36.312 a 1.75,1.75 0 0 0 -1.75,1.75 v 9.64 a 1.751,1.751 0 0 0 1.75,1.75 z m 1.75,-9.64 h 16.813 v 6.14 H 38.062 Z"
         inkscape:connector-curvature="0"
         style="stroke-width:1.57132494" />
      <path
         id="path6"
         d="m 36.312,57.561 h 20.313 a 1.749,1.749 0 0 0 1.75,-1.75 v -9.64 a 1.75,1.75 0 0 0 -1.75,-1.75 H 36.312 a 1.751,1.751 0 0 0 -1.75,1.75 v 9.64 a 1.75,1.75 0 0 0 1.75,1.75 z m 1.75,-9.64 h 16.813 v 6.14 H 38.062 Z"
         inkscape:connector-curvature="0"
         style="stroke-width:1.57132494" />
      <path
         id="path8"
         d="m 58.375,76.617 v -9.64 a 1.749,1.749 0 0 0 -1.75,-1.75 H 36.312 a 1.75,1.75 0 0 0 -1.75,1.75 v 9.64 a 1.751,1.751 0 0 0 1.75,1.75 h 20.313 a 1.75,1.75 0 0 0 1.75,-1.75 z m -3.5,-1.75 H 38.062 v -6.14 h 16.813 z"
         inkscape:connector-curvature="0"
         style="stroke-width:1.57132494" />
      <path
         id="path10"
         d="m 71.375,36.756 h 20.312 a 1.75,1.75 0 0 0 1.75,-1.75 v -9.64 a 1.749,1.749 0 0 0 -1.75,-1.75 H 71.375 a 1.749,1.749 0 0 0 -1.75,1.75 v 9.64 a 1.75,1.75 0 0 0 1.75,1.75 z m 1.75,-9.64 h 16.812 v 6.14 H 73.125 Z"
         inkscape:connector-curvature="0"
         style="stroke-width:1.57132494" />
      <path
         id="path12"
         d="m 71.375,57.561 h 20.312 a 1.749,1.749 0 0 0 1.75,-1.75 v -9.64 a 1.75,1.75 0 0 0 -1.75,-1.75 H 71.375 a 1.75,1.75 0 0 0 -1.75,1.75 v 9.64 a 1.749,1.749 0 0 0 1.75,1.75 z m 1.75,-9.64 h 16.812 v 6.14 H 73.125 Z"
         inkscape:connector-curvature="0"
         style="stroke-width:1.57132494" />
      <path
         id="path14"
         d="m 71.375,78.367 h 20.312 a 1.75,1.75 0 0 0 1.75,-1.75 v -9.64 a 1.749,1.749 0 0 0 -1.75,-1.75 H 71.375 a 1.749,1.749 0 0 0 -1.75,1.75 v 9.64 a 1.75,1.75 0 0 0 1.75,1.75 z m 1.75,-9.64 h 16.812 v 6.14 H 73.125 Z"
         inkscape:connector-curvature="0"
         style="stroke-width:1.57132494" />
    </g>
  </g>
</svg>
