<?xml version="1.0" encoding="iso-8859-1"?>
<!-- Generator: Adobe Illustrator 19.0.0, SVG Export Plug-In . SVG Version: 6.00 Build 0)  -->
<svg version="1.1" id="Capa_1" xmlns="http://www.w3.org/2000/svg" xmlns:xlink="http://www.w3.org/1999/xlink" x="0px" y="0px"
	 viewBox="0 0 512.04 512.04" style="enable-background:new 0 0 512.04 512.04;" xml:space="preserve">
<g>
	<g>
		<g>
			<polygon points="240.042,159.972 240.042,303.972 208.042,303.972 208.042,223.972 176.042,223.972 176.042,303.972 
				144.042,303.972 144.042,335.972 368.042,335.972 368.042,303.972 336.042,303.972 336.042,191.972 304.042,191.972 
				304.042,303.972 272.042,303.972 272.042,159.972 			"/>
			<path d="M346.618,124.244l10.96,7.568l68.064-68.096l-14.528-11.104c-35.282-26.931-76.971-44.207-120.96-50.128l-18.112-2.416
				V96.34l13.088,2.416C307.202,102.792,328.163,111.481,346.618,124.244z M304.042,37.396
				c25.789,5.667,50.372,15.857,72.608,30.096L353.482,90.66c-15.425-9.137-32.072-16.032-49.44-20.48V37.396z"/>
			<path d="M459.402,100.836l0,0.032l-11.104-14.496l-68.096,68.064l7.568,10.96c37.694,54.501,37.694,126.651,0,181.152
				l-7.568,10.96l68.096,68.064l11.104-14.528C529.587,319.551,529.587,192.329,459.402,100.836z M444.538,376.596L444.538,376.596
				l-23.184-23.184c35.582-60.087,35.582-134.793,0-194.88l23.184-23.184C491.877,208.797,491.877,303.147,444.538,376.596z"/>
			<path d="M346.618,387.7c-72.726,50.1-172.296,31.758-222.396-40.969S92.464,174.435,165.19,124.335
				c18.556-12.783,39.604-21.5,61.764-25.579l13.088-2.416V0.068L221.93,2.484C183.494,7.671,146.734,21.5,114.41,42.932
				l17.712,26.656c23.064-15.4,48.818-26.325,75.92-32.208v32.8C105.27,96.301,43.133,200.788,69.254,303.56
				s130.608,164.908,233.38,138.788c17.873-4.543,34.998-11.637,50.848-21.063l23.184,23.184
				c-35.927,23.253-77.828,35.586-120.624,35.504c-123.8-0.123-224.06-100.583-223.936-224.383
				c0.024-23.626,3.782-47.1,11.136-69.553l-30.4-10.064C-31.271,310.374,41.924,455.088,176.325,499.2
				c25.73,8.445,52.636,12.756,79.716,12.772c56.1,0.089,110.647-18.424,155.104-52.64l14.528-11.104l-68.096-68.096L346.618,387.7z
				"/>
			<path d="M108.41,87.7l-21.088-24c-8.549,7.475-16.599,15.503-24.096,24.032l24.08,21.04C93.87,101.292,100.92,94.253,108.41,87.7
				z"/>
			<path d="M69.178,132.532L42.522,114.82c-6.275,9.488-11.914,19.382-16.88,29.616l28.8,13.936
				C58.775,149.441,63.698,140.809,69.178,132.532z"/>
		</g>
	</g>
</g>
<g>
</g>
<g>
</g>
<g>
</g>
<g>
</g>
<g>
</g>
<g>
</g>
<g>
</g>
<g>
</g>
<g>
</g>
<g>
</g>
<g>
</g>
<g>
</g>
<g>
</g>
<g>
</g>
<g>
</g>
</svg>
