<svg id="Layer_1" enable-background="new 0 0 512 512" height="512" viewBox="0 0 512 512" width="512" xmlns="http://www.w3.org/2000/svg"><g><path d="m436 106h-50v-36c0-2.652-1.054-5.196-2.929-7.071l-60-60c-1.875-1.875-4.419-2.929-7.071-2.929h-180c-5.523 0-10 4.477-10 10v96h-50c-16.542 0-30 13.458-30 30v280c0 16.542 13.458 30 30 30h130v46h-30c-5.523 0-10 4.477-10 10s4.477 10 10 10h160c5.523 0 10-4.477 10-10s-4.477-10-10-10h-30v-46h130c16.542 0 30-13.458 30-30v-280c0-16.542-13.458-30-30-30zm-110-71.858 25.858 25.858h-25.858zm-180-14.142h160v50c0 5.523 4.477 10 10 10h50v220h-220zm-70 106h50v184c0 5.523 4.477 10 10 10h240c5.523 0 10-4.477 10-10v-184h50c5.514 0 10 4.486 10 10v210h-380v-210c0-5.514 4.486-10 10-10zm210 366h-60v-46h60zm150-66h-360c-5.514 0-10-4.486-10-10v-50h380v50c0 5.514-4.486 10-10 10z"/><path d="m274 386h-36c-5.523 0-10 4.477-10 10s4.477 10 10 10h36c5.523 0 10-4.477 10-10s-4.477-10-10-10z"/><path d="m196 260c11.046 0 20-8.954 20-20v-40c0-11.046-8.954-20-20-20-11.046 0-20 8.954-20 20v40c0 11.046 8.954 20 20 20z"/><path d="m256 260c11.046 0 20-8.954 20-20v-80c0-11.046-8.954-20-20-20-11.046 0-20 8.954-20 20v80c0 11.046 8.954 20 20 20z"/><path d="m316 200c-11.046 0-20 8.954-20 20v20c0 11.046 8.954 20 20 20 11.046 0 20-8.954 20-20v-20c0-11.046-8.954-20-20-20z"/><path d="m180 70h36c5.523 0 10-4.477 10-10s-4.477-10-10-10h-36c-5.523 0-10 4.477-10 10s4.477 10 10 10z"/><path d="m180 110h70c5.523 0 10-4.477 10-10s-4.477-10-10-10h-70c-5.523 0-10 4.477-10 10s4.477 10 10 10z"/></g></svg>